<?xml version="1.0" encoding="iso-8859-1"?>
<!-- Generator: Adobe Illustrator 19.0.0, SVG Export Plug-In . SVG Version: 6.00 Build 0)  -->
<svg xmlns="http://www.w3.org/2000/svg" xmlns:xlink="http://www.w3.org/1999/xlink" version="1.1" id="Layer_1" x="0px" y="0px" viewBox="0 0 512 512" style="enable-background:new 0 0 512 512;" xml:space="preserve">
<circle style="fill:#FFDF47;" cx="255.996" cy="255.996" r="255.996"/>
<path style="fill:#FEC000;" d="M512,256.001c0-26.605-4.061-52.261-11.593-76.384L393.276,72.485  c-11.098-11.097-29.256-11.097-40.353,0L130.438,294.97L84.364,427.636l57.608,57.608C176.31,502.358,215.028,512,256.001,512  C397.385,512,512,397.385,512,256.001z"/>
<path style="fill:#FF0335;" d="M400.804,197.788l-86.592-86.592l38.711-38.711c11.097-11.097,29.256-11.097,40.353,0l46.238,46.238  c11.097,11.097,11.097,29.256,0,40.353L400.804,197.788z"/>
<path style="fill:#C2001B;" d="M439.17,159.422c11.287-11.287,11.287-29.756,0-41.043l-22.774-22.774l-58.888,58.888l43.296,43.296  L439.17,159.422z"/>
<rect x="288.796" y="145.226" transform="matrix(-0.7071 -0.7071 0.7071 -0.7071 483.0012 524.0056)" style="fill:#FFFFFF;" width="122.459" height="33.488"/>
<rect x="341.061" y="166.878" transform="matrix(-0.7071 -0.7071 0.7071 -0.7071 504.6495 576.2772)" style="fill:#C8C6CC;" width="61.23" height="33.488"/>
<polygon style="fill:#E67500;" points="297.372,128.037 130.438,294.97 84.364,427.636 217.03,381.562 383.963,214.627 "/>
<polygon style="fill:#9A4C00;" points="383.963,214.627 340.667,171.333 84.364,427.636 217.03,381.562 "/>
<polygon style="fill:#FFC473;" points="84.364,427.636 217.03,381.562 130.438,294.97 "/>
<polygon style="fill:#FFAA20;" points="173.734,338.266 84.364,427.636 217.03,381.562 "/>
<polygon style="fill:#57555C;" points="142.558,407.426 104.574,369.442 84.364,427.636 "/>
<polygon style="fill:#171719;" points="123.566,388.434 84.364,427.636 142.558,407.426 "/>
<g>
</g>
<g>
</g>
<g>
</g>
<g>
</g>
<g>
</g>
<g>
</g>
<g>
</g>
<g>
</g>
<g>
</g>
<g>
</g>
<g>
</g>
<g>
</g>
<g>
</g>
<g>
</g>
<g>
</g>
</svg>
