<?xml version="1.0" encoding="iso-8859-1"?>
<!-- Generator: Adobe Illustrator 19.0.0, SVG Export Plug-In . SVG Version: 6.00 Build 0)  -->
<svg version="1.1" id="Capa_1" xmlns="http://www.w3.org/2000/svg" xmlns:xlink="http://www.w3.org/1999/xlink" x="0px" y="0px"
	 viewBox="0 0 512.505 512.505" style="enable-background:new 0 0 512.505 512.505;" xml:space="preserve">
<g>
	<path style="fill:#FFD15C;" d="M290.312,355.156c0,0,4.267,22.4,2.133,26.667c-2.133,4.267-5.333,21.333-3.2,29.867
		s8.533,30.933,8.533,36.267s0,8.533,0,8.533s0,5.333,1.067,7.467c1.067,2.133-1.067,19.2-1.067,19.2v5.333l5.333,3.2h17.067
		l1.067-2.133c0,0-6.4-16-7.467-21.333c0-5.333,1.067-7.467,0-10.667c-2.133-3.2,1.067-24.533,1.067-24.533s5.333-29.867,2.133-38.4
		c0,0,0-6.4,2.133-9.6c2.133-3.2,6.4-30.933,6.4-30.933L290.312,355.156z"/>
	<path style="fill:#FFD15C;" d="M326.579,360.489c0,0,5.333,29.867,6.4,35.2c1.067,5.333-4.267,14.933-4.267,14.933
		s-4.267,37.333-2.133,54.4s-2.133,23.467-2.133,23.467s-2.133,8.533,4.267,11.733c6.4,3.2,11.733,2.133,11.733,2.133l9.6-2.133
		c0,0-8.533-11.733-7.467-19.2s6.4-24.533,6.4-24.533s10.667-36.267,9.6-66.133c0,0,3.2-12.8,3.2-17.067l8.533-28.8L326.579,360.489
		z"/>
</g>
<path style="fill:#F7B64C;" d="M305.245,111.956c0,0,2.133,16-4.267,19.2c-6.4,3.2-10.667,9.6-10.667,9.6l8.533,27.733l24.533,19.2
	c0,0,24.533-7.467,24.533-8.533c0-1.067,7.467-20.267,7.467-20.267s-5.333-25.6-6.4-26.667
	c-1.067-1.067-20.267-11.733-20.267-11.733l-2.133-19.2l-20.267,2.133L305.245,111.956z"/>
<g>
	<path style="fill:#FFD15C;" d="M315.912,58.623l-7.467,3.2l-5.333,10.667c0,0-3.2,2.133-2.133,5.333c0,3.2-2.133,5.333-2.133,5.333
		s-3.2,6.4-2.133,12.8c1.067,5.333,0,9.6,0,11.733c0,1.067,0,1.067,0,2.133c1.067,1.067,4.267,4.267,11.733,3.2
		c10.667-1.067,18.133-4.267,19.2-10.667c0-6.4,5.333-17.067,5.333-17.067l-7.467-22.4L315.912,58.623"/>
</g>
<path style="fill:#F3705A;" d="M305.245,121.556c0,0-2.133,34.133,8.533,46.933c2.133,2.133,4.267,5.333,5.333,9.6
	c0,0,9.6-16,24.533-18.133c0,0,4.267-25.6-1.067-34.133l20.267,8.533c7.467,3.2,12.8,9.6,13.867,18.133l4.267,30.933l6.4,39.467
	c0,0,0,20.267,0,28.8c0,0-17.067-5.333-19.2,0c0,0,17.067,46.933,19.2,59.733c1.067,12.8,3.2,40.533-3.2,45.867c0,0-6.4-5.333-16,0
	c-9.6,5.333-37.333,10.667-49.067,6.4c0,0-23.467,5.333-40.533-3.2c0,0-14.933-1.067-17.067-6.4c0,0-5.333-19.2,1.067-42.667
	c6.4-23.467,9.6-30.933,9.6-30.933l7.467-26.667c0,0-12.8-8.533-16,5.333c0,0-5.333-3.2-3.2-13.867c0,0-6.4-16,2.133-27.733
	l-1.067-48c0,0,10.667-30.933,37.333-38.4C295.645,130.089,299.912,123.689,305.245,121.556z"/>
<path style="fill:#F7B64C;" d="M367.112,249.556c0,0,5.333,25.6,4.267,33.067c0,0-6.4,9.6-5.333,14.933
	c0,4.267-2.133,10.667-2.133,10.667s-1.067,4.267,1.067,5.333c0,0,2.133,1.067,2.133-2.133l1.067-1.067l2.133-8.533l2.133,3.2
	c0,0,0,4.267,1.067,5.333c0,0-2.133,4.267-1.067,5.333c0,0-6.4,0-8.533,2.133c0,0-2.133,1.067-1.067,3.2h6.4h5.333
	c2.133,0,3.2-1.067,4.267-3.2l3.2-7.467c1.067-2.133,1.067-4.267,1.067-6.4v-18.133l3.2-35.2l-14.933-6.4
	C372.445,243.156,367.112,239.956,367.112,249.556z"/>
<path style="fill:#415A6B;" d="M327.645,76.756c2.133,2.133,2.133,5.333,2.133,9.6s-1.067,7.467-3.2,11.733
	c-3.2,7.467-10.667,24.533-7.467,35.2c0,0-9.6,9.6-3.2,19.2c5.333,9.6,10.667,8.533,10.667,8.533s-16-9.6-8.533-21.333
	c0,0,0,10.667,9.6,13.867c0,0-6.4,4.267,5.333,19.2c0,0,4.267,13.867-5.333,10.667c0,0,11.733,6.4,8.533-9.6
	c0,0-4.267-6.4-4.267-10.667c0,0,9.6,7.467,9.6,16c-1.067,8.533-6.4,8.533-6.4,8.533s6.4,1.067,7.467-5.333c0,0,0,7.467,5.333,7.467
	c5.333,0,7.467-5.333,7.467-6.4c0-1.067,9.6,5.333,4.267,11.733c0,0,8.533,3.2,8.533-5.333c0,0,12.8,4.267,5.333-12.8
	s-10.667-43.733-10.667-43.733s-1.067-20.267-6.4-25.6c0,0,7.467,2.133,5.333,13.867c0,0,6.4-9.6-5.333-16c0,0,0-38.4-19.2-50.133
	c-19.2-10.667-28.8,4.267-29.867,7.467l0,0c5.333-2.133,10.667,0,12.8,5.333C322.312,70.356,324.445,73.556,327.645,76.756z"/>
<g>
	<path style="fill:#F7B64C;" d="M261.512,253.823l1.067,3.2l13.867,32c0,0,0,1.067,1.067,1.067l2.133,2.133
		c1.067,1.067,2.133,1.067,3.2,0h1.067l1.067,1.067c1.067,1.067,2.133,0,3.2,0l6.4-6.4c1.067-1.067,1.067-3.2,0-5.333l-3.2-4.267
		l-12.8-13.867c0,0-3.2-4.267-3.2-10.667c0-2.133,0-4.267-2.133-5.333c-3.2-3.2-6.4-2.133-10.667,1.067
		C261.512,249.556,260.445,251.689,261.512,253.823z"/>
	<path style="fill:#F7B64C;" d="M283.912,267.689c0,0,12.8,6.4,10.667,9.6c-2.133,3.2-6.4,0-6.4,0l-7.467-7.467L283.912,267.689z"/>
</g>
<path style="fill:#FFD15C;" d="M161.245,172.756c0,0-5.333,22.4-10.667,29.867c-6.4,7.467-12.8,35.2-7.467,41.6
	c5.333,5.333,4.267,13.867,4.267,13.867s0,10.667,1.067,12.8c1.067,2.133,2.133,6.4-1.067,6.4s-5.333-4.267-5.333-8.533
	s0-7.467-1.067-9.6c0,0-2.133,3.2-2.133,5.333c0,3.2-2.133,10.667,2.133,13.867c0,0,3.2,3.2-1.067,4.267
	c-1.067-1.067-2.133-1.067-4.267-1.067c-1.067,0-2.133-1.067-2.133-2.133l-2.133-7.467h-1.067c-1.067,0-2.133,0-3.2-1.067
	l-3.2-7.467c0-1.067,0-1.067,0-2.133l1.067-26.667c0,0,8.533-60.8,14.933-73.6L161.245,172.756L161.245,172.756z"/>
<path style="fill:#F3F3F3;" d="M149.512,274.089c0-1.067-1.067-3.2-1.067-3.2c-1.067,1.067-4.267,1.067-4.267,1.067
	c1.067,1.067,1.067,2.133,1.067,3.2C146.312,278.356,149.512,277.289,149.512,274.089z"/>
<path style="fill:#FFD15C;" d="M251.912,190.889c0,0,3.2,20.267,9.6,27.733c6.4,7.467,17.067,34.133,16,36.267
	c0,2.133-1.067,6.4-1.067,6.4l-3.2,10.667l-3.2,8.533c0,0-3.2,6.4-1.067,7.467c2.133,1.067,4.267-1.067,4.267-1.067l1.067,1.067
	c1.067,1.067,2.133,2.133,4.267,1.067l9.6-5.333c2.133-1.067,4.267-3.2,4.267-6.4l1.067-16l-7.467-42.667l-6.4-30.933
	l-10.667-13.867L251.912,190.889z"/>
<path style="fill:#F7B64C;" d="M280.712,277.289l1.067,1.067c0,0,1.067,1.067,1.067,0v-1.067c1.067,0,2.133,0,2.133,0
	c-1.067,0-2.133-1.067-2.133-1.067h-1.067c1.067,0,2.133-1.067,2.133-1.067c-1.067,0-2.133,0-3.2,0c0-1.067,0-3.2,0-4.267
	c0,1.067,0,3.2-1.067,4.267l-1.067,1.067c-1.067,0-1.067,1.067-2.133,2.133c-1.067,3.2-2.133,5.333-2.133,8.533l0,0l0,0
	c1.067-2.133,1.067-5.333,2.133-7.467c0-1.067,0-1.067,1.067-2.133c0-1.067,1.067-1.067,1.067-1.067
	C279.645,276.223,279.645,277.289,280.712,277.289z"/>
<path style="fill:#ADB3BA;" d="M211.379,56.489c0,0,2.133-6.4,5.333-6.4c3.2,1.067,2.133,0,2.133,0S214.579,55.423,211.379,56.489
	L211.379,56.489z"/>
<path style="fill:#F7B64C;" d="M234.845,28.756l-6.4,6.4c0,0-7.467,17.067-18.133,21.333l1.067,22.4l5.333,36.267l6.4,7.467
	l17.067-29.867c0,0-4.267-8.533,2.133-16c6.4-7.467,10.667-9.6,10.667-9.6l9.6-32L234.845,28.756"/>
<path style="fill:#E8EAE9;" d="M220.979,77.823c0,0,1.067,0,1.067,8.533c0,7.467,2.133,20.267,2.133,20.267l-5.333,116.267
	c0,0-54.4-1.067-62.933-8.533c0,0-8.533-5.333-3.2-16c0,0,9.6-12.8,9.6-25.6c0,0-20.267-1.067-23.467-11.733
	c0,0,1.067-1.067,0-5.333c-1.067-5.333-2.133-17.067,2.133-20.267c0,0,9.6-66.133,35.2-69.333c25.6-3.2,33.067-9.6,33.067-9.6
	S207.112,76.756,220.979,77.823z"/>
<path style="fill:#F3F3F3;" d="M215.645,50.089c0,0-5.333,1.067-3.2,7.467c2.133,7.467,7.467,19.2,7.467,19.2
	s-3.2,1.067-5.333,7.467l-2.133,4.267c0,0-7.467-20.267-7.467-28.8c0-1.067,0-2.133,1.067-3.2c1.067-1.067,2.133-2.133,3.2-3.2
	c1.067-1.067,2.133-2.133,2.133-3.2C212.445,51.156,213.512,50.089,215.645,50.089z"/>
<g>
	<path style="fill:#CED6E0;" d="M161.245,165.289c-4.267-1.067-8.533-2.133-11.733-5.333h1.067
		C153.779,161.023,158.045,163.156,161.245,165.289z"/>
	<path style="fill:#CED6E0;" d="M150.579,166.356c-4.267,0-8.533-1.067-11.733-3.2C142.045,164.223,146.312,163.156,150.579,166.356
		z"/>
	<path style="fill:#CED6E0;" d="M145.245,155.689c6.4,0,12.8,1.067,18.133,3.2C158.045,154.623,150.579,153.556,145.245,155.689"/>
	<path style="fill:#CED6E0;" d="M138.845,152.489C139.912,152.489,139.912,152.489,138.845,152.489
		C139.912,152.489,139.912,152.489,138.845,152.489L138.845,152.489z"/>
	<path style="fill:#CED6E0;" d="M160.179,152.489c-6.4-2.133-13.867-3.2-20.267-1.067c5.333-3.2,11.733-5.333,17.067-6.4
		c-3.2,1.067-6.4,2.133-8.533,3.2C152.712,149.289,156.979,150.356,160.179,152.489z"/>
	<path style="fill:#CED6E0;" d="M168.712,159.956c2.133-5.333,3.2-23.467,3.2-23.467c3.2-2.133,5.333-23.467,5.333-23.467
		c-1.067-2.133,2.133-7.467,2.133-7.467s2.133-5.333,1.067-4.267c-1.067,1.067-2.133,3.2-2.133,3.2
		c-1.067-2.133-2.133-1.067-2.133-1.067c3.2,3.2,0,6.4,0,6.4c1.067,10.667-5.333,24.533-5.333,24.533
		c-3.2-7.467-3.2-2.133-3.2-2.133c4.267,12.8-2.133,30.933-2.133,30.933c-3.2-3.2-2.133-2.133-2.133,3.2
		c0,2.133-1.067,3.2-2.133,5.333c0,1.067,0,1.067,0,2.133c2.133-2.133,3.2-4.267,3.2-4.267S167.645,165.289,168.712,159.956z"/>
</g>
<path style="fill:#E8EAE9;" d="M210.312,230.356c0,0,3.2-34.133,2.133-36.267c-1.067-2.133,3.2-76.8,10.667-87.467
	s13.867-18.133,17.067-19.2c6.4-1.067,0,0,0,0l8.533-16l23.467,20.267c0,0,5.333,21.333,4.267,40.533c-1.067,19.2,0,33.067,0,33.067
	l3.2,21.333c0,0-6.4,1.067-10.667,3.2c-3.2,2.133-17.067,3.2-18.133,1.067c-1.067-2.133-4.267-13.867-3.2-16
	c0-2.133,0-7.467,0-7.467c-1.067-1.067-3.2,14.933-2.133,22.4c1.067,6.4,1.067,24.533,3.2,27.733
	C252.979,228.223,210.312,230.356,210.312,230.356z"/>
<g>
	<path style="fill:#CED6E0;" d="M240.179,87.423c-3.2,1.067-9.6,8.533-17.067,19.2s-10.667,85.333-10.667,87.467
		c1.067,2.133-2.133,36.267-2.133,36.267l0,0l8.533-2.133c2.133-26.667,2.133-34.133,2.133-36.267c0-9.6,3.2-68.267,7.467-82.133
		c3.2-11.733,10.667-20.267,12.8-23.467C241.245,87.423,241.245,87.423,240.179,87.423z"/>
	<path style="fill:#CED6E0;" d="M242.312,87.423C242.312,86.356,242.312,86.356,242.312,87.423c1.067-1.067,0-1.067,0-2.133
		l-1.067,3.2C240.179,87.423,241.245,87.423,242.312,87.423z"/>
</g>
<path style="fill:#ADB3BA;" d="M250.845,71.423l-5.333,18.133l0,0c-11.733,0-19.2,14.933-22.4,17.067
	C226.312,101.289,240.179,75.689,250.845,71.423z"/>
<g>
	<path style="fill:#CED6E0;" d="M260.445,125.823L260.445,125.823L260.445,125.823z"/>
	<path style="fill:#CED6E0;" d="M260.445,125.823C259.379,125.823,259.379,125.823,260.445,125.823c-2.133,1.067-6.4,6.4-4.267,12.8
		c0,0-9.6,11.733-7.467,19.2l-2.133,11.733l0,0c0,0,1.067,5.333,0,7.467c0,1.067,1.067,8.533,2.133,12.8
		c0-2.133,2.133-5.333,5.333-6.4c6.4-1.067,0-1.067,0-1.067s-9.6-4.267-1.067-6.4c8.533-3.2,11.733-3.2,11.733-3.2
		s-10.667,0-12.8,1.067c0,0,6.4-8.533,9.6-9.6c4.267,0,0,0,0,0s-8.533,2.133-12.8,7.467c0,0,0-10.667,3.2-11.733
		c0,0-4.267-4.267,0-11.733c5.333-7.467,5.333-8.533,5.333-8.533s-2.133-9.6,2.133-9.6c4.267-1.067,6.4-1.067,7.467-3.2
		c0,0-4.267,1.067-6.4,1.067c0,0,6.4-8.533,7.467-9.6C268.979,117.289,262.579,123.689,260.445,125.823z"/>
</g>
<path style="fill:#FFD15C;" d="M258.312,79.956c-1.067,2.133-5.333,4.267-13.867-7.467c-10.667-14.933,5.333-32,5.333-32v1.067
	l6.4-22.4l27.733,3.2l5.333,17.067c0,13.867-10.667,19.2-10.667,19.2s-2.133,7.467-3.2,10.667c-2.133,3.2-4.267,0-4.267,0
	l-2.133,3.2c-7.467-1.067-7.467,4.267-7.467,4.267L258.312,79.956z"/>
<path style="fill:#344A5E;" d="M256.179,50.089l2.133,1.067c0,0,4.267-5.333,9.6-6.4c5.333-1.067,8.533-8.533,8.533-14.933
	c0,0,7.467,11.733,12.8,9.6c0,0,13.867-5.333,4.267-19.2c-9.6-13.867-25.6-23.467-39.467-19.2
	c-13.867,4.267-26.667,24.533-25.6,34.133c1.067,8.533,11.733,6.4,17.067,2.133c1.067-1.067,2.133-1.067,3.2-1.067
	c5.333,0,8.533,5.333,7.467,10.667V50.089z"/>
<path style="fill:#FFD15C;" d="M258.312,46.889c-1.067,4.267-4.267,7.467-7.467,5.333c-3.2-1.067-3.2-6.4-2.133-11.733
	c1.067-4.267,4.267-7.467,7.467-5.333C258.312,37.289,259.379,41.556,258.312,46.889z"/>
<path style="fill:#F3F3F3;" d="M273.245,284.756C273.245,284.756,273.245,283.689,273.245,284.756
	c-1.067-1.067-2.133-1.067-2.133-1.067c-1.067-1.067-3.2,4.267,0,4.267C271.112,287.956,272.179,286.889,273.245,284.756z"/>
<path style="fill:#415A6B;" d="M164.445,499.156c-6.4,0-10.667-4.267-13.867-8.533c-4.267-6.4-5.333-13.867-3.2-20.267
	c1.067-4.267,1.067-9.6,1.067-12.8c-1.067-7.467,3.2-20.267,3.2-20.267v-1.067l21.333,6.4v20.267c0,0,0,0,2.133,19.2
	c1.067,13.867-4.267,16-7.467,17.067C165.512,499.156,165.512,499.156,164.445,499.156z"/>
<polygon style="fill:#FFD15C;" points="190.045,491.689 192.179,482.089 197.512,469.289 210.312,471.423 206.045,492.756 "/>
<path style="fill:#415A6B;" d="M192.179,482.089c0,0-2.133,7.467,5.333,4.267c7.467-4.267,10.667-14.933,17.067-8.533
	c6.4,6.4,13.867,16,14.933,19.2c1.067,2.133,8.533,3.2,11.733,3.2c3.2,0,2.133,6.4,2.133,6.4s-20.267,8.533-34.133,1.067l-6.4-4.267
	v3.2h-13.867v-7.467C188.979,500.223,185.779,487.423,192.179,482.089z"/>
<path style="fill:#344A5E;" d="M244.445,504.489c0,1.067,0,1.067,0,1.067s-20.267,8.533-34.133,1.067l-7.467-3.2v3.2h-13.867v-7.467
	c0,0,0-1.067-1.067-3.2c4.267,2.133,19.2,7.467,23.467,8.533C216.712,506.623,231.645,509.823,244.445,504.489z"/>
<path style="fill:#66C6B9;" d="M246.579,225.023c0,0,8.533,16,2.133,28.8c0,0-10.667,77.867-14.933,101.333
	c-4.267,23.467-3.2,21.333-3.2,21.333s6.4,12.8-1.067,25.6c0,0-1.067,45.867-11.733,68.267l1.067,12.8c0,0-7.467-5.333-16-2.133
	c-9.6,3.2-10.667,0-10.667,0s2.133-33.067,2.133-37.333c0-5.333,2.133-26.667,2.133-26.667s2.133-19.2,3.2-28.8
	c1.067-6.4,1.067-11.733,2.133-18.133c1.067-18.133,1.067-51.2,1.067-59.733c0,0-1.067,57.6-6.4,66.133
	c-8.533,7.467-9.6,18.133-9.6,18.133s-6.4,37.333-5.333,44.8c0,0-7.467,11.733-19.2,8.533c-11.733-3.2-3.2-7.467-10.667-11.733
	c0,0,2.133-48,11.733-68.267l-9.6-93.867c0,0-6.4-42.667,1.067-52.267l11.733-2.133L246.579,225.023z"/>
<path style="fill:#4ABAA5;" d="M188.979,274.089c0,0,11.733,0,13.867,2.133c0,0,2.133,3.2-1.067,4.267c0,0-13.867-2.133-18.133,0
	l0,0c7.467,0,12.8,5.333,14.933,11.733c2.133,6.4,3.2,16,2.133,20.267l0,0l0,0c1.067-8.533,7.467-16,16-18.133
	c3.2-1.067,5.333-1.067,6.4-1.067c0,0-13.867-2.133-17.067-2.133c0,0,7.467-9.6,24.533-8.533c0,0-20.267-4.267-24.533-3.2
	l7.467-4.267c5.333-3.2,10.667-4.267,17.067-5.333l0,0c0,0-4.267-2.133-8.533-2.133c-2.133,0-16,6.4-16,6.4s-19.2-7.467-25.6-6.4
	c-5.333,0,13.867,5.333,17.067,5.333L188.979,274.089z"/>
<path style="fill:#415A6B;" d="M153.779,213.289c0,0,9.6,4.267,18.133,5.333c11.733,1.067,33.067,2.133,40.533,2.133
	c11.733-1.067,32-4.267,32-4.267s0,7.467,1.067,8.533c0,0-13.867,5.333-43.733,5.333c-20.267,0-42.667-4.267-48-7.467
	C153.779,222.889,153.779,215.423,153.779,213.289z"/>
<g>
	<circle style="fill:#344A5E;" cx="204.979" cy="226.089" r="1.067"/>
	<circle style="fill:#344A5E;" cx="195.379" cy="226.089" r="1.067"/>
	<circle style="fill:#344A5E;" cx="213.512" cy="225.023" r="1.067"/>
	<circle style="fill:#344A5E;" cx="222.045" cy="225.023" r="1.067"/>
</g>
<g>
	<path style="fill:#CED6E0;" d="M220.979,218.623c0,0,3.2,5.333,1.067,12.8h3.2c0,0,1.067-9.6-2.133-12.8H220.979z"/>
	<path style="fill:#CED6E0;" d="M182.579,218.623c0,0-3.2,5.333-1.067,12.8h-3.2c0,0-1.067-9.6,2.133-12.8H182.579z"/>
</g>
<path style="fill:#FFD15C;" d="M217.779,231.423C217.779,232.489,217.779,232.489,217.779,231.423l-13.867,1.067l0,0
	c-3.2-1.067-4.267-3.2-5.333-5.333c-1.067-4.267,3.2-7.467,3.2-7.467l0,0h13.867l0,0v2.133c-1.067,0-1.067,0-2.133,0v-1.067
	l-11.733,1.067c-1.067,1.067-3.2,3.2-2.133,6.4c0,2.133,1.067,3.2,3.2,4.267h11.733v-1.067h2.133H217.779z"/>
<path style="fill:#FFFFFF;" d="M204.979,226.089L204.979,226.089h-7.467c0,0-1.067,0-1.067-1.067c0,0,0-1.067,1.067-1.067l0,0h7.467
	C204.979,225.023,206.045,225.023,204.979,226.089C206.045,226.089,204.979,226.089,204.979,226.089z"/>
<path style="fill:#344A5E;" d="M172.979,473.556v12.8c0,1.067,0,2.133,0,3.2c-3.2,10.667-16,6.4-20.267-2.133
	c-3.2-5.333-4.267-20.267-4.267-23.467c0,2.133,0,4.267-1.067,6.4c-1.067,7.467,0,14.933,3.2,20.267
	c3.2,4.267,7.467,8.533,13.867,8.533c1.067,0,1.067,0,2.133,0c3.2,0,8.533-3.2,7.467-17.067
	C174.045,478.889,172.979,475.689,172.979,473.556z"/>
<g>
	<path style="fill:#415A6B;" d="M299.912,469.289c0,0,0,6.4,0,8.533c0,2.133-1.067,6.4,0,8.533c1.067,1.067,3.2,2.133,5.333,2.133
		c2.133,0,16,1.067,16-2.133c0,0,6.4,9.6-1.067,10.667s-21.333,1.067-22.4-4.267c-1.067-5.333,1.067-12.8,1.067-13.867
		S298.845,470.356,299.912,469.289z"/>
	<path style="fill:#415A6B;" d="M354.312,510.889c0,0-18.133,4.267-22.4-1.067c0,0,0-2.133-3.2-1.067h-1.067
		c-3.2,0-8.533-1.067-9.6-4.267c0,0,0-10.667,6.4-16c0,0-2.133,9.6,2.133,10.667c4.267,1.067,6.4,0,6.4,0s10.667-1.067,14.933,0l0,0
		c3.2,0,5.333,3.2,6.4,6.4C355.379,507.689,354.312,508.756,354.312,510.889z"/>
</g>
<g>
</g>
<g>
</g>
<g>
</g>
<g>
</g>
<g>
</g>
<g>
</g>
<g>
</g>
<g>
</g>
<g>
</g>
<g>
</g>
<g>
</g>
<g>
</g>
<g>
</g>
<g>
</g>
<g>
</g>
</svg>
